<?xml version="1.0" encoding="UTF-8"?>
<svg version="1.1" xmlns="http://www.w3.org/2000/svg" width="1600" height="900">
<path d="M0 0 C25.08 0 50.16 0 76 0 C76.33 47.19 76.66 94.38 77 143 C79.97 137.72 82.94 132.44 86 127 C104.1687525 105.54540928 125.09712333 92.94254244 153.23828125 90.27734375 C180.65341844 88.25608234 208.48577403 94.18459206 230 112 C230.83789062 112.68707031 231.67578125 113.37414062 232.5390625 114.08203125 C261.18373168 138.69161545 272.92789876 177.02034839 275.80151367 213.57446289 C276.19942691 220.44176988 276.24467546 227.31062975 276.25 234.1875 C276.25067474 234.97657745 276.25134949 235.76565491 276.25204468 236.5786438 C276.20028299 274.934057 268.93707714 315.22639687 243 345 C242.484375 345.65871094 241.96875 346.31742188 241.4375 346.99609375 C226.01950851 366.15294818 201.14177839 376.36875117 177.30078125 379.3359375 C152.34106952 381.97077155 125.64111552 378.09733947 105.1875 362.5625 C103.78261903 361.38571778 102.3866182 360.19824743 101 359 C99.91332031 358.14535156 99.91332031 358.14535156 98.8046875 357.2734375 C89.11256769 349.33738121 83.022659 338.84078621 77 328 C76.67 343.18 76.34 358.36 76 374 C50.92 374 25.84 374 0 374 C0 250.58 0 127.16 0 0 Z M96 172 C78.75175391 192.88306534 74.26938459 220.48631034 76.51293945 246.78173828 C78.41260447 266.5609487 84.12570646 285.24828078 98 300 C98.59039063 300.63164063 99.18078125 301.26328125 99.7890625 301.9140625 C110.78111297 312.53191551 124.68481021 316.3647601 139.55419922 316.30322266 C156.6381393 315.8935088 168.5344562 308.82499483 180.16015625 296.7578125 C197.76107128 276.61341264 199.0755407 247.33881361 198 222 C196.27194343 200.45534846 188.76918963 181.02141774 173 166 C149.83317421 147.14152354 116.16561264 150.36142087 96 172 Z " fill="#262627" transform="translate(927,236)"/>
<path d="M0 0 C19.8 0 39.6 0 60 0 C60.33 36.63 60.66 73.26 61 111 C63.31 107.04 65.62 103.08 68 99 C74.38631862 90.96872053 81.36816397 85.3511013 90 80 C90.81082031 79.4946875 91.62164063 78.989375 92.45703125 78.46875 C110.56951525 68.34797529 135.21197119 68.22974155 154.80859375 73.60546875 C165.53245773 76.95495647 175.68778067 82.42490201 184 90 C185.21042969 91.07314453 185.21042969 91.07314453 186.4453125 92.16796875 C208.82405973 113.143767 216.84872613 145.22785279 218.12573242 174.92382812 C219.06654638 211.32175357 213.82880728 247.70218694 188.65234375 275.6015625 C175.74817662 289.13969029 157.91686951 298.03043771 139.09423828 299.17700195 C115.73716284 299.65032877 94.83368311 298.16156073 77.0612793 281.12329102 C75.6913359 279.76499085 74.34498772 278.38301565 73 277 C72.29875 276.28457031 71.5975 275.56914063 70.875 274.83203125 C66.51473787 270.1240758 64.23940175 265.83092316 61 260 C60.67 271.55 60.34 283.1 60 295 C40.2 295 20.4 295 0 295 C0 197.65 0 100.3 0 0 Z M75 136 C60.85991063 154.34389972 58.07161223 177.67653739 60.6875 200.0625 C63.26666596 215.78824801 69.24911297 230.81266544 82 241 C93.58280367 248.60333165 105.08660163 250.7863747 118.83984375 248.53515625 C130.84085951 245.33109359 140.04630309 237.98114224 146.625 227.625 C158.11139719 207.08401042 159.0051904 180.37417715 153 158 C149.04676456 144.64285601 141.98958103 133.4758564 130 126 C110.78622506 117.11621159 89.63554991 120.19719764 75 136 Z " fill="#262627" transform="translate(455,315)"/>
<path d="M0 0 C25.41 0 50.82 0 77 0 C77 22.44 77 44.88 77 68 C93.83 68 110.66 68 128 68 C128 87.14 128 106.28 128 126 C111.17 126 94.34 126 77 126 C77.06296408 144.32463557 77.13821961 162.64908745 77.23571491 180.97356892 C77.28059732 189.48277354 77.32002923 197.99193702 77.34643555 206.5012207 C77.36947701 213.92167448 77.4029432 221.34199721 77.44870156 228.76234692 C77.47255125 232.68796687 77.49133389 236.6134577 77.49761391 240.53914833 C77.50370241 244.24185329 77.52383623 247.94422823 77.55427551 251.64681053 C77.56712192 253.63779219 77.56549615 255.62885118 77.5632782 257.61987305 C77.67940255 268.82587338 78.9618499 278.9618499 87.1875 287.1875 C94.39471765 291.83215137 102.79111502 293.14583469 111.25 293.125 C112.80460937 293.12886719 112.80460937 293.12886719 114.390625 293.1328125 C118.93969301 292.96542255 123.47044479 292.45295552 128 292 C128 310.81 128 329.62 128 349 C93.99162187 353.85833973 53.09092933 356.2248953 23.80859375 334.6484375 C8.61395734 321.62446344 2.44533087 303.36732464 0 284 C-0.08423372 281.72117972 -0.12206866 279.44030319 -0.12025452 277.15992737 C-0.12110894 276.50874512 -0.12196337 275.85756287 -0.12284368 275.18664783 C-0.12447863 273.02487507 -0.11900995 270.86318152 -0.11352539 268.70141602 C-0.11324306 267.14375307 -0.11340214 265.58608999 -0.1139679 264.02842712 C-0.11425409 259.81408827 -0.10838607 255.59977805 -0.10139394 251.38544583 C-0.09513083 246.97587305 -0.09455426 242.56629957 -0.09336853 238.15672302 C-0.09026393 229.81294794 -0.08206229 221.469186 -0.07201904 213.1254167 C-0.06083085 203.62362317 -0.05534063 194.121829 -0.05032361 184.62003052 C-0.03987894 165.08001139 -0.02154429 145.54001027 0 126 C-12.87 126 -25.74 126 -39 126 C-39 106.86 -39 87.72 -39 68 C-26.13 68 -13.26 68 0 68 C0 45.56 0 23.12 0 0 Z " fill="#262627" transform="translate(1388,264)"/>
<path d="M0 0 C21.78 0 43.56 0 66 0 C68.05710875 5.48562333 69.8628546 10.76806681 71.34985352 16.39794922 C71.56555748 17.20142477 71.78126144 18.00490032 72.00350189 18.83272362 C72.71568559 21.48906602 73.42226232 24.14686655 74.12890625 26.8046875 C74.6361265 28.70027768 75.14373945 30.59576282 75.65171814 32.4911499 C76.73188148 36.52406521 77.80974256 40.55758559 78.88574219 44.59161377 C81.4142835 54.07045868 83.95508294 63.54602037 86.49502182 73.02181625 C87.34920193 76.20889216 88.20294352 79.39608533 89.05667114 82.58328247 C93.96506422 100.90137996 98.92462312 119.20526622 103.91987228 137.49985504 C104.49971687 139.62396282 105.07904607 141.74821055 105.65823364 143.87249756 C106.71874206 147.7617168 107.7809717 151.65046289 108.84375 155.5390625 C109.15295883 156.67204773 109.46216766 157.80503296 109.78074646 158.97235107 C110.06128372 159.99677307 110.34182098 161.02119507 110.63085938 162.07666016 C110.87300171 162.96197418 111.11514404 163.84728821 111.36462402 164.75942993 C111.86386802 166.51994842 112.42132307 168.2639692 113 170 C113.26878967 168.99921417 113.53757935 167.99842834 113.81451416 166.96731567 C125.47119344 123.56724495 137.12987308 80.16770423 148.84922791 36.78450775 C149.50053211 34.37302983 150.15149543 31.96146013 150.80236816 29.54986572 C151.81614108 25.79389237 152.83082093 22.03816527 153.84627533 18.28264618 C154.21494012 16.91871654 154.58332021 15.55470991 154.95139313 14.19062042 C155.44918378 12.34609342 155.94819028 10.50189466 156.44726562 8.65771484 C156.72493774 7.63028168 157.00260986 6.60284851 157.28869629 5.54428101 C157.8094513 3.68157866 158.38837546 1.83487363 159 0 C180.12 0 201.24 0 223 0 C221.79967663 5.40145517 220.7026753 10.2667142 218.97558594 15.4296875 C218.57993942 16.61958786 218.18429291 17.80948822 217.7766571 19.03544617 C217.34601167 20.31533623 216.91524757 21.59518638 216.484375 22.875 C216.03197102 24.22947802 215.57993803 25.58408001 215.12825012 26.938797 C213.92362519 30.54769431 212.71325386 34.15463896 211.50157547 37.76117325 C210.49260581 40.76673738 209.48706633 43.77344448 208.48148823 46.78014469 C202.3610559 65.07844948 196.18278391 83.35638528 189.91699219 101.60546875 C185.70537487 113.87975157 181.59074679 126.18495541 177.5 138.5 C171.24901625 157.31407522 164.89225999 176.08964734 158.44772339 194.83827209 C156.58989584 200.2525446 154.76761577 205.6778498 152.9609375 211.109375 C143.99044187 237.98846655 143.99044187 237.98846655 137 250 C136.45214844 250.97839844 135.90429688 251.95679688 135.33984375 252.96484375 C124.60500519 271.05926431 108.85854759 282.49594327 88.6875 288.25 C67.52432881 293.41700009 44.45126143 293.90800906 23 290 C22 289 22 289 21.87974548 287.17137146 C21.88196609 286.37417191 21.88418671 285.57697235 21.88647461 284.75561523 C21.88655014 283.85475693 21.88662567 282.95389862 21.88670349 282.02574158 C21.89186478 281.04658279 21.89702606 280.06742401 21.90234375 279.05859375 C21.9037587 278.06118668 21.90517365 277.0637796 21.90663147 276.03614807 C21.91224886 272.83656876 21.92480429 269.63705831 21.9375 266.4375 C21.94251276 264.27408955 21.94707605 262.11067801 21.95117188 259.94726562 C21.96222393 254.63148675 21.97897896 249.31574829 22 244 C22.668535 244.0702388 23.33707001 244.1404776 24.02586365 244.21284485 C25.35582115 244.34979012 25.35582115 244.34979012 26.71264648 244.48950195 C27.58743149 244.58036575 28.46221649 244.67122955 29.36351013 244.7648468 C41.36722962 245.83547979 54.79660194 246.65400824 65.1484375 239.6015625 C71.23690519 234.3351664 74.76280556 226.88133728 76 219 C75.53201976 215.22699188 74.30131552 211.87843763 72.953125 208.3359375 C72.41725517 206.82287018 72.41725517 206.82287018 71.87055969 205.27923584 C70.69055298 201.96747744 69.47051231 198.67202141 68.25 195.375 C67.40989021 193.03990121 66.57261152 190.7037821 65.73803711 188.36669922 C64.01891513 183.5651815 62.2844717 178.76964891 60.53662109 173.97851562 C58.21142101 167.59790239 55.93185783 161.20221654 53.67578125 154.796875 C53.33435089 153.82783234 52.99292053 152.85878967 52.6411438 151.86038208 C51.95707965 149.91861222 51.27310901 147.97680942 50.5892334 146.03497314 C48.85025016 141.1063378 47.0981668 136.18236265 45.34765625 131.2578125 C40.70272153 118.1820841 36.10078328 105.09131439 31.5 92 C25.22877501 74.15940469 18.939785 56.32522624 12.625 38.5 C12.27187744 37.50307129 11.91875488 36.50614258 11.55493164 35.47900391 C10.87397839 33.55682143 10.19285204 31.63470027 9.51153564 29.71264648 C8.87459054 27.91546429 8.23813799 26.11810744 7.60223389 24.32055664 C6.223976 20.4287197 4.83711523 16.54083905 3.41699219 12.6640625 C3.06016861 11.68475769 3.06016861 11.68475769 2.69613647 10.68566895 C2.07645651 8.98892151 1.45132369 7.29416819 0.82568359 5.59960938 C0 3 0 3 0 0 Z " fill="#262627" transform="translate(677,390)"/>
<path d="M0 0 C25.41 0 50.82 0 77 0 C77 91.74 77 183.48 77 278 C51.59 278 26.18 278 0 278 C0 186.26 0 94.52 0 0 Z " fill="#262627" transform="translate(1242,332)"/>
<path d="M0 0 C14.52 0 29.04 0 44 0 C44.33 26.73 44.66 53.46 45 81 C47.31 77.37 49.62 73.74 52 70 C63.60020313 58.22920565 77.45235246 52.3142238 93.9375 51.75 C110.68228422 52.00231867 125.61830578 56.82856118 137.828125 68.69921875 C158.26604924 90.35018526 160.96416044 118.32258727 160.15234375 146.80517578 C159.12789045 168.28914362 152.10185183 189.30264928 137 205 C124.87077033 215.69047721 110.65912647 220.41497606 94.6875 220.3125 C93.76469238 220.30686035 92.84188477 220.3012207 91.89111328 220.29541016 C77.64072184 220.04241498 65.46228846 215.77967617 54.85546875 206.00390625 C50.99848466 201.83836343 47.5432734 197.08654681 45 192 C44.67 200.25 44.34 208.5 44 217 C29.48 217 14.96 217 0 217 C0 145.39 0 73.78 0 0 Z M52.25 104.25 C43.64262102 117.32046438 42.93101682 133.94323918 45 149 C47.52978328 160.91488604 52.51828253 172.15146016 63 179 C71.17854353 183.24679379 79.69827287 184.54123283 88.69921875 182.33984375 C98.33662964 178.9305912 105.39136731 172.04001028 110 163 C113.90845447 154.27273676 114.37199765 145.80733819 114.4375 136.375 C114.44765137 135.33859375 114.45780273 134.3021875 114.46826172 133.234375 C114.34483653 122.24779477 112.17541493 112.19214061 106 103 C105.59265625 102.37351562 105.1853125 101.74703125 104.765625 101.1015625 C100.28208281 95.06196744 93.48630489 90.88646922 86.03271484 89.68212891 C71.69626429 88.32796025 61.18863605 92.88594136 52.25 104.25 Z " fill="#262627" transform="translate(84,393)"/>
<path d="M0 0 C14.85 0 29.7 0 45 0 C45 13.2 45 26.4 45 40 C54.57 40 64.14 40 74 40 C74 51.22 74 62.44 74 74 C64.43 74 54.86 74 45 74 C45.04038308 84.81431037 45.09754056 95.62817972 45.18390274 106.4422226 C45.22334429 111.46409883 45.2555491 116.48580059 45.27099609 121.5078125 C45.28618451 126.35800409 45.32066894 131.2077159 45.36830902 136.05769348 C45.38310028 137.90432048 45.39103972 139.75101598 45.39188385 141.59770203 C45.39426209 144.19260287 45.42140939 146.78618696 45.45410156 149.38085938 C45.4490712 150.1375592 45.44404083 150.89425903 45.43885803 151.67388916 C45.54368745 157.08222222 46.82793149 161.54920579 50 166 C55.13307953 169.14770238 60.07915672 169.51046058 65.9375 169.6875 C68.598125 169.790625 71.25875 169.89375 74 170 C74 180.89 74 191.78 74 203 C54.94039742 205.72280037 31.80047883 206.93778103 15.109375 195.6796875 C6.62946217 188.92716432 1.65787968 179.74451259 0 169 C-0.13933544 165.9034819 -0.12632767 162.81084272 -0.11352539 159.71166992 C-0.11367142 158.78435059 -0.11381744 157.85703125 -0.1139679 156.90161133 C-0.11327269 153.84453979 -0.10549864 150.78752961 -0.09765625 147.73046875 C-0.09579068 145.60769179 -0.09436743 143.48491439 -0.09336853 141.36213684 C-0.08955433 135.78084113 -0.07973339 130.19957154 -0.06866455 124.61828613 C-0.05842686 118.92065789 -0.05386586 113.22302542 -0.04882812 107.52539062 C-0.03811015 96.35024711 -0.0205222 85.17512981 0 74 C-7.59 74 -15.18 74 -23 74 C-23 62.78 -23 51.56 -23 40 C-15.41 40 -7.82 40 0 40 C0 26.8 0 13.6 0 0 Z " fill="#262627" transform="translate(351,409)"/>
<path d="M0 0 C14.85 0 29.7 0 45 0 C45 53.13 45 106.26 45 161 C30.15 161 15.3 161 0 161 C0 107.87 0 54.74 0 0 Z " fill="#262627" transform="translate(266,449)"/>
<path d="M0 0 C8.77439078 6.34115636 15.31363231 14.77489029 17.51171875 25.4921875 C18.8400278 37.23478833 17.66218619 47.84397601 10.76171875 57.7421875 C2.83695492 67.45898336 -6.03710989 72.91387 -18.48828125 74.4921875 C-30.80965034 75.73084365 -41.88881532 71.52039208 -51.453125 63.93359375 C-57.67627595 58.25513872 -62.86332238 49.9980884 -63.68115234 41.484375 C-64.19143113 28.07486695 -63.25797409 18.03118902 -54.55078125 7.1796875 C-40.73626594 -7.23950356 -17.07516711 -10.34696155 0 0 Z " fill="#FD823E" transform="translate(1303.48828125,223.5078125)"/>
<path d="M0 0 C5.14295596 3.14851988 9.05579065 7.92584518 11.4375 13.4375 C13.09995927 20.44932418 12.64210478 27.17423989 9.31640625 33.60546875 C5.5828271 39.24285596 0.90743816 42.5116062 -5.5625 44.4375 C-12.26833316 45.34717485 -18.83749351 45.37839369 -24.78125 41.83984375 C-29.71008995 37.95946318 -33.66861795 33.47648238 -35.5625 27.4375 C-36.39974732 19.83412613 -36.40834412 12.6577502 -31.5625 6.4375 C-23.56705314 -2.03161077 -10.92645401 -4.93384454 0 0 Z " fill="#262627" transform="translate(300.5625,384.5625)"/>
</svg>
